<?xml version="1.0" standalone="no"?>
<!DOCTYPE svg PUBLIC "-//W3C//DTD SVG 20010904//EN"
 "http://www.w3.org/TR/2001/REC-SVG-20010904/DTD/svg10.dtd">
<svg version="1.0" xmlns="http://www.w3.org/2000/svg"
 width="626.000000pt" height="469.000000pt" viewBox="0 0 626.000000 469.000000"
 preserveAspectRatio="xMidYMid meet">
<metadata>
Created by potrace 1.15, written by Peter Selinger 2001-2017
</metadata>
<g transform="translate(0.000000,469.000000) scale(0.100000,-0.100000)"
fill="#000000" stroke="none">
<path d="M1073 3463 c-57 -11 -96 -118 -78 -210 l8 -38 7 35 c10 57 20 67 40
40 l18 -24 22 43 c18 37 25 42 43 36 12 -4 47 -10 78 -12 66 -5 80 10 48 51
-40 51 -132 90 -186 79z"/>
<path d="M5203 3379 c-25 -6 -44 -17 -47 -27 -12 -36 -25 -169 -26 -246 0 -76
1 -78 23 -72 12 3 43 6 70 6 44 0 47 2 47 26 0 14 4 23 9 20 5 -3 15 2 22 11
12 15 12 16 -3 10 -10 -3 -20 -2 -23 3 -5 9 15 15 38 11 4 0 7 3 7 8 0 5 -19
6 -42 4 -64 -7 -78 9 -85 92 -5 58 -3 73 11 84 15 12 20 11 44 -11 15 -14 41
-33 58 -41 33 -17 44 -46 59 -150 8 -52 18 -61 80 -70 29 -5 48 -16 67 -39
l27 -33 -35 113 c-43 137 -90 262 -108 288 -11 14 -29 19 -82 21 -38 1 -88 -3
-111 -8z"/>
<path d="M1084 3139 c-3 -6 5 -21 19 -33 53 -45 60 -89 17 -111 -54 -28 -49
-83 15 -161 37 -44 36 -54 -4 -54 -19 0 -22 -3 -13 -12 9 -9 18 -9 37 0 15 7
37 9 49 6 13 -3 27 -1 30 4 3 6 -2 8 -13 5 -32 -8 -32 13 -1 72 38 72 39 107
4 134 -15 12 -32 21 -38 21 -7 0 -22 23 -33 51 -14 32 -30 53 -43 56 -16 4
-18 8 -9 19 8 9 8 14 1 14 -6 0 -14 -5 -18 -11z m121 -151 c39 -18 41 -50 9
-116 -16 -31 -33 -57 -39 -56 -5 0 -25 20 -43 44 -26 33 -32 51 -30 79 3 35
13 43 75 60 1 1 14 -4 28 -11z"/>
<path d="M2665 2720 c4 -6 133 -10 356 -10 l349 0 0 -44 c0 -24 -3 -64 -6 -90
l-7 -46 -338 0 -339 0 0 -40 0 -40 333 0 c184 0 336 -2 338 -4 2 -3 1 -58 -3
-123 -3 -65 -9 -161 -11 -213 l-5 -95 11 95 c12 91 13 95 38 98 30 3 27 14 50
-233 6 -71 15 -133 18 -137 4 -4 17 167 29 380 13 213 26 415 29 450 l6 62
-427 0 c-282 0 -425 -3 -421 -10z"/>
<path d="M5530 2449 c-117 -35 -243 -58 -262 -48 -9 5 -23 9 -30 8 -7 0 6 -9
29 -19 40 -18 48 -18 110 -5 97 21 106 20 121 -15 8 -17 21 -30 31 -30 28 0
68 36 75 67 4 16 9 36 12 46 6 21 -2 20 -86 -4z"/>
<path d="M3890 2271 l0 -50 -53 -15 c-101 -29 -174 -93 -220 -194 -21 -44 -22
-64 -25 -319 -3 -258 -2 -273 17 -312 20 -38 21 -57 21 -330 l0 -290 33 -25
c17 -13 47 -30 66 -38 30 -12 -76 -14 -780 -15 -813 -2 -814 -2 -777 18 21 11
45 30 53 43 9 14 54 244 112 570 l96 547 -20 27 c-11 15 -28 29 -38 30 -15 3
-14 0 5 -26 l23 -30 -96 -546 c-53 -300 -101 -555 -107 -566 -6 -12 -26 -30
-43 -40 -28 -17 -51 -20 -170 -20 l-139 0 6 28 c3 15 15 79 26 142 11 63 58
327 104 585 78 436 87 512 57 480 -8 -9 -35 -156 -147 -790 -20 -110 -42 -231
-49 -270 -8 -38 -17 -93 -21 -121 l-6 -51 -225 -7 -224 -7 -35 30 c-32 29 -40
31 -109 31 l-75 0 0 -30 0 -31 -132 3 -133 3 -3 28 c-3 27 -4 27 -79 27 -70 0
-77 -2 -103 -30 l-28 -30 -336 0 -336 0 0 -45 0 -45 3130 0 3130 0 0 45 0 45
-295 0 -295 0 0 50 c0 48 -1 50 -28 50 -21 0 -43 -14 -81 -50 l-52 -50 -130 0
-129 0 0 50 c0 48 -1 50 -28 50 -19 0 -45 -15 -84 -50 l-56 -50 -239 0 -238 0
55 28 c58 29 93 71 110 131 6 22 10 237 10 551 0 433 -2 525 -15 575 -32 124
-119 211 -243 244 l-42 12 0 49 0 50 -295 0 -295 0 0 -49z m700 -796 l0 -275
-405 0 -405 0 0 275 0 275 405 0 405 0 0 -275z"/>
<path d="M3942 1538 l3 -33 240 0 240 0 3 33 3 32 -246 0 -246 0 3 -32z"/>
<path d="M3940 1415 l0 -35 246 0 245 0 -3 33 -3 32 -242 3 -243 2 0 -35z"/>
<path d="M3000 2199 c-90 -41 -134 -108 -134 -204 1 -97 44 -164 134 -204 136
-62 291 32 307 184 8 73 -15 132 -71 183 -69 64 -154 78 -236 41z m130 -114
l0 -45 50 0 50 0 0 -45 0 -45 -50 0 -50 0 0 -45 0 -45 -45 0 -45 0 0 45 0 45
-45 0 -45 0 0 45 0 45 45 0 45 0 0 45 0 45 45 0 45 0 0 -45z"/>
<path d="M5117 1664 c-3 -4 -4 -18 -1 -33 2 -14 13 -174 24 -356 11 -181 22
-363 26 -402 l6 -73 53 0 53 0 7 103 c3 56 13 192 21 302 12 169 12 219 0 321
-7 67 -16 126 -20 133 -8 12 -157 16 -169 5z"/>
<path d="M5383 1648 c56 -126 108 -299 146 -478 18 -84 61 -333 61 -352 0 -5
23 -8 51 -8 l51 0 -7 98 c-35 556 -35 550 -99 697 l-25 55 -92 0 c-69 0 -90
-3 -86 -12z"/>
<path d="M746 1288 c3 -134 7 -307 10 -385 l6 -143 64 0 c62 0 64 1 64 25 0
36 49 651 56 703 l5 42 -104 0 -105 0 4 -242z"/>
<path d="M1090 1506 c0 -13 13 -181 30 -373 16 -191 30 -354 30 -360 0 -9 19
-13 63 -13 l64 0 6 248 c4 136 7 309 7 385 l0 137 -100 0 c-99 0 -100 0 -100
-24z"/>
</g>
</svg>
